<mxfile host="app.diagrams.net" agent="Mozilla/5.0 (Windows NT 10.0; Win64; x64) AppleWebKit/537.36 (KHTML, like Gecko) Chrome/134.0.0.0 Safari/537.36" version="26.1.1">
  <diagram id="E_RpoompiALEzD8Yxrjx" name="第 1 页">
    <mxGraphModel dx="1379" dy="309" grid="1" gridSize="5" guides="1" tooltips="1" connect="1" arrows="1" fold="1" page="0" pageScale="1" pageWidth="1654" pageHeight="2336" math="0" shadow="0">
      <root>
        <mxCell id="0" />
        <mxCell id="1" parent="0" />
        <mxCell id="77--EYf3I-4FInswbORS-75" value="" style="rounded=1;whiteSpace=wrap;html=1;dashed=1;fillColor=none;" vertex="1" parent="1">
          <mxGeometry x="25" y="845" width="420" height="80" as="geometry" />
        </mxCell>
        <mxCell id="77--EYf3I-4FInswbORS-72" value="" style="rounded=1;whiteSpace=wrap;html=1;dashed=1;fillColor=none;" vertex="1" parent="1">
          <mxGeometry x="25" y="680" width="720" height="80" as="geometry" />
        </mxCell>
        <mxCell id="77--EYf3I-4FInswbORS-35" value="&lt;span style=&quot;font-size: 14px;&quot;&gt;Idle Mode&lt;/span&gt;" style="rounded=1;whiteSpace=wrap;html=1;" vertex="1" parent="1">
          <mxGeometry x="305" y="690" width="100" height="50" as="geometry" />
        </mxCell>
        <mxCell id="77--EYf3I-4FInswbORS-36" value="&lt;span style=&quot;font-size: 14px;&quot;&gt;Counting Down Mode&lt;/span&gt;" style="rounded=1;whiteSpace=wrap;html=1;" vertex="1" parent="1">
          <mxGeometry x="40" y="690" width="100" height="50" as="geometry" />
        </mxCell>
        <mxCell id="77--EYf3I-4FInswbORS-37" value="&lt;span style=&quot;font-size: 14px;&quot;&gt;Break Reminder Mode&lt;/span&gt;" style="rounded=1;whiteSpace=wrap;html=1;" vertex="1" parent="1">
          <mxGeometry x="610" y="690" width="120" height="50" as="geometry" />
        </mxCell>
        <mxCell id="77--EYf3I-4FInswbORS-44" value="&lt;span style=&quot;font-size: 14px;&quot;&gt;Counting Ends&lt;/span&gt;" style="text;html=1;align=center;verticalAlign=middle;whiteSpace=wrap;rounded=0;" vertex="1" parent="1">
          <mxGeometry x="177.5" y="685" width="100" height="30" as="geometry" />
        </mxCell>
        <mxCell id="77--EYf3I-4FInswbORS-45" value="&lt;span style=&quot;font-size: 14px;&quot;&gt;Counting Down Enable&lt;/span&gt;" style="text;html=1;align=center;verticalAlign=middle;whiteSpace=wrap;rounded=0;" vertex="1" parent="1">
          <mxGeometry x="150" y="720" width="155" height="30" as="geometry" />
        </mxCell>
        <mxCell id="77--EYf3I-4FInswbORS-60" value="&lt;span style=&quot;font-size: 14px;&quot;&gt;Break Display Time Arrived&lt;/span&gt;" style="text;html=1;align=center;verticalAlign=middle;whiteSpace=wrap;rounded=0;" vertex="1" parent="1">
          <mxGeometry x="425" y="685" width="175" height="30" as="geometry" />
        </mxCell>
        <mxCell id="77--EYf3I-4FInswbORS-61" value="&lt;span style=&quot;font-size: 14px;&quot;&gt;Break Setting Time Arrived&lt;/span&gt;" style="text;html=1;align=center;verticalAlign=middle;whiteSpace=wrap;rounded=0;" vertex="1" parent="1">
          <mxGeometry x="415" y="720" width="195" height="30" as="geometry" />
        </mxCell>
        <mxCell id="77--EYf3I-4FInswbORS-65" style="edgeStyle=orthogonalEdgeStyle;rounded=0;orthogonalLoop=1;jettySize=auto;html=1;exitX=1;exitY=0.5;exitDx=0;exitDy=0;entryX=0;entryY=0.5;entryDx=0;entryDy=0;" edge="1" parent="1">
          <mxGeometry relative="1" as="geometry">
            <mxPoint x="405" y="725" as="sourcePoint" />
            <mxPoint x="610" y="725" as="targetPoint" />
          </mxGeometry>
        </mxCell>
        <mxCell id="77--EYf3I-4FInswbORS-66" style="edgeStyle=orthogonalEdgeStyle;rounded=0;orthogonalLoop=1;jettySize=auto;html=1;exitX=1;exitY=0.5;exitDx=0;exitDy=0;entryX=0;entryY=0.5;entryDx=0;entryDy=0;" edge="1" parent="1">
          <mxGeometry relative="1" as="geometry">
            <mxPoint x="610" y="710" as="sourcePoint" />
            <mxPoint x="405" y="710" as="targetPoint" />
          </mxGeometry>
        </mxCell>
        <mxCell id="77--EYf3I-4FInswbORS-73" value="&lt;span style=&quot;color: rgb(0, 0, 0); font-family: Helvetica; font-style: normal; font-variant-ligatures: normal; font-variant-caps: normal; letter-spacing: normal; orphans: 2; text-align: center; text-indent: 0px; text-transform: none; widows: 2; word-spacing: 0px; -webkit-text-stroke-width: 0px; white-space: normal; background-color: rgb(255, 255, 255); text-decoration-thickness: initial; text-decoration-style: initial; text-decoration-color: initial; float: none; display: inline !important;&quot;&gt;&lt;font style=&quot;font-size: 16px;&quot;&gt;&lt;b&gt;OLED Module&lt;/b&gt;&lt;/font&gt;&lt;/span&gt;" style="text;whiteSpace=wrap;html=1;" vertex="1" parent="1">
          <mxGeometry x="50" y="645" width="115" height="40" as="geometry" />
        </mxCell>
        <mxCell id="77--EYf3I-4FInswbORS-76" value="&lt;span style=&quot;font-size: 14px;&quot;&gt;Idle Mode&lt;/span&gt;" style="rounded=1;whiteSpace=wrap;html=1;" vertex="1" parent="1">
          <mxGeometry x="330" y="855" width="100" height="50" as="geometry" />
        </mxCell>
        <mxCell id="77--EYf3I-4FInswbORS-77" value="&lt;span style=&quot;font-size: 14px;&quot;&gt;Activated Mode&lt;/span&gt;" style="rounded=1;whiteSpace=wrap;html=1;" vertex="1" parent="1">
          <mxGeometry x="40" y="855" width="110" height="50" as="geometry" />
        </mxCell>
        <mxCell id="77--EYf3I-4FInswbORS-79" value="&lt;span style=&quot;font-size: 14px;&quot;&gt;Commands Finished&lt;/span&gt;" style="text;html=1;align=center;verticalAlign=middle;whiteSpace=wrap;rounded=0;" vertex="1" parent="1">
          <mxGeometry x="165" y="850" width="142.5" height="30" as="geometry" />
        </mxCell>
        <mxCell id="77--EYf3I-4FInswbORS-80" value="&lt;span style=&quot;font-size: 14px;&quot;&gt;Counting Down Enable&lt;/span&gt;" style="text;html=1;align=center;verticalAlign=middle;whiteSpace=wrap;rounded=0;" vertex="1" parent="1">
          <mxGeometry x="165" y="885" width="155" height="30" as="geometry" />
        </mxCell>
        <mxCell id="77--EYf3I-4FInswbORS-87" value="&lt;span style=&quot;color: rgb(0, 0, 0); font-family: Helvetica; font-style: normal; font-variant-ligatures: normal; font-variant-caps: normal; letter-spacing: normal; orphans: 2; text-align: center; text-indent: 0px; text-transform: none; widows: 2; word-spacing: 0px; -webkit-text-stroke-width: 0px; white-space: normal; background-color: rgb(255, 255, 255); text-decoration-thickness: initial; text-decoration-style: initial; text-decoration-color: initial; float: none; display: inline !important;&quot;&gt;&lt;font style=&quot;font-size: 16px;&quot;&gt;&lt;b&gt;Motor Module&lt;/b&gt;&lt;/font&gt;&lt;/span&gt;" style="text;whiteSpace=wrap;html=1;" vertex="1" parent="1">
          <mxGeometry x="50" y="810" width="115" height="40" as="geometry" />
        </mxCell>
        <mxCell id="77--EYf3I-4FInswbORS-90" style="edgeStyle=orthogonalEdgeStyle;rounded=0;orthogonalLoop=1;jettySize=auto;html=1;entryX=0;entryY=0.5;entryDx=0;entryDy=0;" edge="1" parent="1">
          <mxGeometry relative="1" as="geometry">
            <mxPoint x="140" y="710" as="sourcePoint" />
            <mxPoint x="305" y="710" as="targetPoint" />
            <Array as="points" />
          </mxGeometry>
        </mxCell>
        <mxCell id="77--EYf3I-4FInswbORS-91" style="edgeStyle=orthogonalEdgeStyle;rounded=0;orthogonalLoop=1;jettySize=auto;html=1;entryX=0;entryY=0.5;entryDx=0;entryDy=0;" edge="1" parent="1">
          <mxGeometry relative="1" as="geometry">
            <mxPoint x="305" y="725" as="sourcePoint" />
            <mxPoint x="140" y="725" as="targetPoint" />
            <Array as="points" />
          </mxGeometry>
        </mxCell>
        <mxCell id="77--EYf3I-4FInswbORS-95" style="edgeStyle=orthogonalEdgeStyle;rounded=0;orthogonalLoop=1;jettySize=auto;html=1;exitX=1;exitY=0.5;exitDx=0;exitDy=0;entryX=0;entryY=0.5;entryDx=0;entryDy=0;" edge="1" parent="1">
          <mxGeometry relative="1" as="geometry">
            <mxPoint x="150" y="875" as="sourcePoint" />
            <mxPoint x="330" y="875" as="targetPoint" />
          </mxGeometry>
        </mxCell>
        <mxCell id="77--EYf3I-4FInswbORS-96" style="edgeStyle=orthogonalEdgeStyle;rounded=0;orthogonalLoop=1;jettySize=auto;html=1;exitX=1;exitY=0.5;exitDx=0;exitDy=0;entryX=0;entryY=0.5;entryDx=0;entryDy=0;" edge="1" parent="1">
          <mxGeometry relative="1" as="geometry">
            <mxPoint x="331.25" y="890" as="sourcePoint" />
            <mxPoint x="151.25" y="890" as="targetPoint" />
          </mxGeometry>
        </mxCell>
        <mxCell id="77--EYf3I-4FInswbORS-116" style="rounded=0;orthogonalLoop=1;jettySize=auto;html=1;exitX=1;exitY=0.5;exitDx=0;exitDy=0;entryX=0.5;entryY=0;entryDx=0;entryDy=0;" edge="1" parent="1" source="77--EYf3I-4FInswbORS-106" target="77--EYf3I-4FInswbORS-113">
          <mxGeometry relative="1" as="geometry" />
        </mxCell>
        <mxCell id="77--EYf3I-4FInswbORS-106" value="&lt;span style=&quot;font-size: 14px;&quot;&gt;One Color Holding&lt;/span&gt;" style="rounded=1;whiteSpace=wrap;html=1;" vertex="1" parent="1">
          <mxGeometry x="185" y="1040" width="100" height="50" as="geometry" />
        </mxCell>
        <mxCell id="77--EYf3I-4FInswbORS-115" style="rounded=0;orthogonalLoop=1;jettySize=auto;html=1;exitX=0.5;exitY=0;exitDx=0;exitDy=0;entryX=0;entryY=0.5;entryDx=0;entryDy=0;" edge="1" parent="1" source="77--EYf3I-4FInswbORS-107" target="77--EYf3I-4FInswbORS-106">
          <mxGeometry relative="1" as="geometry" />
        </mxCell>
        <mxCell id="77--EYf3I-4FInswbORS-107" value="&lt;span style=&quot;font-size: 14px;&quot;&gt;One Color Blinking&lt;/span&gt;" style="rounded=1;whiteSpace=wrap;html=1;" vertex="1" parent="1">
          <mxGeometry x="40" y="1135" width="110" height="50" as="geometry" />
        </mxCell>
        <mxCell id="77--EYf3I-4FInswbORS-110" value="&lt;span style=&quot;color: rgb(0, 0, 0); font-family: Helvetica; font-style: normal; font-variant-ligatures: normal; font-variant-caps: normal; letter-spacing: normal; orphans: 2; text-align: center; text-indent: 0px; text-transform: none; widows: 2; word-spacing: 0px; -webkit-text-stroke-width: 0px; white-space: normal; background-color: rgb(255, 255, 255); text-decoration-thickness: initial; text-decoration-style: initial; text-decoration-color: initial; float: none; display: inline !important;&quot;&gt;&lt;font style=&quot;font-size: 16px;&quot;&gt;&lt;b&gt;LED Strips&lt;/b&gt;&lt;/font&gt;&lt;/span&gt;" style="text;whiteSpace=wrap;html=1;" vertex="1" parent="1">
          <mxGeometry x="50" y="990" width="115" height="40" as="geometry" />
        </mxCell>
        <mxCell id="77--EYf3I-4FInswbORS-117" style="edgeStyle=orthogonalEdgeStyle;rounded=0;orthogonalLoop=1;jettySize=auto;html=1;exitX=0;exitY=0.5;exitDx=0;exitDy=0;entryX=1;entryY=0.5;entryDx=0;entryDy=0;" edge="1" parent="1" source="77--EYf3I-4FInswbORS-113" target="77--EYf3I-4FInswbORS-107">
          <mxGeometry relative="1" as="geometry" />
        </mxCell>
        <mxCell id="77--EYf3I-4FInswbORS-113" value="&lt;span style=&quot;font-size: 14px;&quot;&gt;Multiple Color Holding&lt;/span&gt;" style="rounded=1;whiteSpace=wrap;html=1;" vertex="1" parent="1">
          <mxGeometry x="305" y="1135" width="110" height="50" as="geometry" />
        </mxCell>
        <mxCell id="77--EYf3I-4FInswbORS-118" value="&lt;span style=&quot;font-size: 14px;&quot;&gt;Color Changing Flag Set&lt;/span&gt;" style="text;html=1;align=center;verticalAlign=middle;whiteSpace=wrap;rounded=0;" vertex="1" parent="1">
          <mxGeometry x="50" y="1075" width="100" height="30" as="geometry" />
        </mxCell>
        <mxCell id="77--EYf3I-4FInswbORS-119" value="&lt;span style=&quot;font-size: 14px;&quot;&gt;Color Changing Flag Set&lt;/span&gt;" style="text;html=1;align=center;verticalAlign=middle;whiteSpace=wrap;rounded=0;" vertex="1" parent="1">
          <mxGeometry x="180" y="1165" width="100" height="30" as="geometry" />
        </mxCell>
        <mxCell id="77--EYf3I-4FInswbORS-120" value="&lt;span style=&quot;font-size: 14px;&quot;&gt;Color Changing Flag Set&lt;/span&gt;" style="text;html=1;align=center;verticalAlign=middle;whiteSpace=wrap;rounded=0;" vertex="1" parent="1">
          <mxGeometry x="315" y="1075" width="100" height="30" as="geometry" />
        </mxCell>
        <mxCell id="77--EYf3I-4FInswbORS-121" value="" style="rounded=1;whiteSpace=wrap;html=1;dashed=1;fillColor=none;" vertex="1" parent="1">
          <mxGeometry x="25" y="1025" width="420" height="190" as="geometry" />
        </mxCell>
      </root>
    </mxGraphModel>
  </diagram>
</mxfile>
